<?xml version="1.0" standalone="no"?>
<!DOCTYPE svg PUBLIC "-//W3C//DTD SVG 20010904//EN"
 "http://www.w3.org/TR/2001/REC-SVG-20010904/DTD/svg10.dtd">
<svg version="1.0" xmlns="http://www.w3.org/2000/svg"
 width="506.000000pt" height="506.000000pt" viewBox="0 0 506.000000 506.000000"
 preserveAspectRatio="xMidYMid meet">
<metadata>
Created by potrace 1.11, written by Peter Selinger 2001-2013
</metadata>
<g transform="translate(0.000000,506.000000) scale(0.100000,-0.100000)"
fill="#000000" stroke="none">
<path d="M1260 3713 c-162 -63 -329 -127 -370 -142 -58 -22 -829 -319 -875
-337 -8 -3 -10 -224 -9 -702 1 -383 2 -700 3 -704 0 -4 779 -7 1731 -7 951 0
1733 -2 1738 -5 4 -2 7 -135 7 -295 0 -160 1 -291 2 -291 2 0 168 63 370 141
203 78 514 197 693 266 179 68 354 136 390 150 36 14 76 29 90 33 l25 6 0 702
0 702 -1737 0 -1738 0 0 28 c-1 15 -1 150 0 300 1 216 -2 272 -12 271 -7 0
-146 -52 -308 -116z"/>
</g>
</svg>
